<?xml version="1.0" encoding="utf-8"?>
<!-- Generator: Adobe Illustrator 22.1.0, SVG Export Plug-In . SVG Version: 6.00 Build 0)  -->
<svg version="1.1" id="Réteg_1" xmlns="http://www.w3.org/2000/svg" xmlns:xlink="http://www.w3.org/1999/xlink" x="0px" y="0px"
	 viewBox="0 0 256 256" style="enable-background:new 0 0 256 256;" xml:space="preserve">
<path id="XMLID_12_" d="M128,0C57.6,0,0,57.6,0,128s57.6,128,128,128s128-57.6,128-128S198.4,0,128,0z M243.6,122h-41.2
	C201.2,78,188,40.8,168,19.6C210.4,35.2,241.2,74.8,243.6,122z M122,12.8V122H65.6C67.2,65.6,92,18.4,122,12.8z M122,134v109.2
	c-30-5.6-54.8-52.8-56.4-109.2H122z M134,243.2V134h56.4C188.8,190.4,164,237.6,134,243.2z M134,122V12.8
	c30,5.6,54.8,52.8,56.4,109.2H134z M88,19.6C68,41.2,54.8,78.4,53.6,122H12.4C14.8,74.8,45.6,35.2,88,19.6z M12.4,134h41.2
	C54.8,178,68,215.2,88,236.4C45.6,220.8,14.8,181.2,12.4,134z M168,236.4c20-21.6,33.2-58.8,34.4-102.4h41.2
	C241.2,181.2,210.4,220.8,168,236.4z"/>
</svg>
